<svg width="76" height="27" viewBox="0 0 76 27" fill="none" xmlns="http://www.w3.org/2000/svg">
<g clip-path="url(#clip0_16526_6462)">
<path d="M8.81244 9.96501L8.85943 9.99085C9.84946 10.5131 11.0529 9.79602 11.0529 8.66311V0H13.6652V8.66311C13.6652 11.8212 10.2572 13.802 7.51708 12.2358L7.51702 12.2357L-0.00030899 7.9389L1.29505 5.66817L8.81244 9.96501Z" fill="#2C3744" style="fill:#2C3744;fill:color(display-p3 0.1738 0.2154 0.2662);fill-opacity:1;"/>
<path d="M24.6929 7.88109L17.2193 12.1993C16.221 12.7761 16.2209 14.219 17.2193 14.7958L24.6929 19.114L23.387 21.3787L15.9134 17.0605C13.1945 15.4897 13.1733 11.5795 15.8497 9.97217L15.9134 9.93458L23.387 5.61648L24.6929 7.88109Z" fill="#2C3744" style="fill:#2C3744;fill:color(display-p3 0.1738 0.2154 0.2662);fill-opacity:1;"/>
<path d="M11.0531 18.3588C11.0531 17.2047 9.80558 16.4836 8.80699 17.0605L1.33213 21.3793L0.0262146 19.1146L7.50107 14.7959L7.56544 14.7594C10.2944 13.2438 13.6654 15.2165 13.6654 18.3588V26.9964H11.0531V18.3588Z" fill="#2C3744" style="fill:#2C3744;fill:color(display-p3 0.1738 0.2154 0.2662);fill-opacity:1;"/>
<path d="M35.2862 17.9094V24.93H32.7401V7.3788H35.2862V9.06204C36.175 7.88414 37.6883 7.1386 39.2976 7.1386C42.444 7.1386 45.2786 9.54305 45.2786 13.3893C45.2786 17.2356 42.348 19.6401 39.322 19.6401C37.6647 19.6401 36.1513 19.0149 35.2868 17.9088L35.2862 17.9094ZM42.7325 13.3656C42.7325 11.1776 41.0752 9.47069 38.9374 9.47069C36.7996 9.47069 35.1423 11.2257 35.1423 13.3656C35.1423 15.5056 36.7516 17.2843 38.9374 17.2843C41.1232 17.2843 42.7325 15.553 42.7325 13.3656Z" fill="#2C3744" style="fill:#2C3744;fill:color(display-p3 0.1738 0.2154 0.2662);fill-opacity:1;"/>
<path d="M48.53 2.06576C49.5391 2.06576 50.2596 2.78697 50.2596 3.79704C50.2596 4.80711 49.5391 5.52833 48.53 5.52833C47.5209 5.52833 46.8004 4.80711 46.8004 3.79704C46.8004 2.78697 47.5209 2.06576 48.53 2.06576ZM47.233 7.3788H49.8271V19.3999H47.233V7.3788Z" fill="#2C3744" style="fill:#2C3744;fill:color(display-p3 0.1738 0.2154 0.2662);fill-opacity:1;"/>
<path d="M51.3441 7.37881H54.0584L57.2527 16.0583L60.3991 7.37881H63.0654L58.5261 19.3999H55.9563L51.3447 7.37881H51.3441Z" fill="#2C3744" style="fill:#2C3744;fill:color(display-p3 0.1738 0.2154 0.2662);fill-opacity:1;"/>
<path d="M65.9177 2.06576C66.9268 2.06576 67.6473 2.78697 67.6473 3.79704C67.6473 4.80711 66.9268 5.52833 65.9177 5.52833C64.9086 5.52833 64.1881 4.80711 64.1881 3.79704C64.1881 2.78697 64.9086 2.06576 65.9177 2.06576ZM64.6207 7.3788H67.2148V19.3999H64.6207V7.3788Z" fill="#2C3744" style="fill:#2C3744;fill:color(display-p3 0.1738 0.2154 0.2662);fill-opacity:1;"/>
<path d="M68.8089 7.3788H70.8508V4.54198L73.4448 3.12326V7.3788H75.9909V9.68718H73.4448V14.4718C73.4448 16.6354 73.7808 16.9723 75.9909 16.9723V19.4005H75.6064C71.9552 19.4005 70.8508 18.2463 70.8508 14.4961V9.68779H68.8089V7.37941V7.3788Z" fill="#2C3744" style="fill:#2C3744;fill:color(display-p3 0.1738 0.2154 0.2662);fill-opacity:1;"/>
</g>
<defs>
<clipPath id="clip0_16526_6462">
<rect width="76" height="27" fill="white" style="fill:white;fill-opacity:1;"/>
</clipPath>
</defs>
</svg>
